<?xml version="1.0" encoding="UTF-8" standalone="no"?>
<svg
   xmlns:dc="http://purl.org/dc/elements/1.1/"
   xmlns:cc="http://creativecommons.org/ns#"
   xmlns:rdf="http://www.w3.org/1999/02/22-rdf-syntax-ns#"
   xmlns:svg="http://www.w3.org/2000/svg"
   xmlns="http://www.w3.org/2000/svg"
   xmlns:sodipodi="http://sodipodi.sourceforge.net/DTD/sodipodi-0.dtd"
   xmlns:inkscape="http://www.inkscape.org/namespaces/inkscape"
   version="1.0"
   x="0px"
   y="0px"
   viewBox="0 0 62.98 55.91"
   enable-background="new 0 0 100 100"
   xml:space="preserve"
   id="svg2"
   inkscape:version="0.91 r13725"
   sodipodi:docname="amp_nick_bluth.svg"
   width="62.98"
   height="55.91"><metadata
     id="metadata30"><rdf:RDF><cc:Work
         rdf:about=""><dc:format>image/svg+xml</dc:format><dc:type
           rdf:resource="http://purl.org/dc/dcmitype/StillImage" /><dc:title></dc:title></cc:Work></rdf:RDF></metadata><defs
     id="defs28" /><sodipodi:namedview
     pagecolor="#ffffff"
     bordercolor="#666666"
     borderopacity="1"
     objecttolerance="10"
     gridtolerance="10"
     guidetolerance="10"
     inkscape:pageopacity="0"
     inkscape:pageshadow="2"
     inkscape:window-width="1920"
     inkscape:window-height="1017"
     id="namedview26"
     showgrid="false"
     fit-margin-top="0"
     fit-margin-left="0"
     fit-margin-right="0"
     fit-margin-bottom="0"
     inkscape:zoom="5.3400704"
     inkscape:cx="46.740875"
     inkscape:cy="7.7611165"
     inkscape:window-x="-8"
     inkscape:window-y="-8"
     inkscape:window-maximized="1"
     inkscape:current-layer="svg2" /><g
     id="g4"
     transform="translate(-18.02,-22.62)"><path
       d="m 27.13,31.07 c -1.18,0 -2.15,0.96 -2.15,2.15 0,1.19 0.96,2.15 2.15,2.15 1.19,0 2.15,-0.96 2.15,-2.15 0,-1.19 -0.97,-2.15 -2.15,-2.15 z m 0,3.29 c -0.63,0 -1.15,-0.51 -1.15,-1.15 0,-0.64 0.51,-1.15 1.15,-1.15 0.64,0 1.15,0.51 1.15,1.15 0,0.64 -0.52,1.15 -1.15,1.15 z"
       id="path6"
       inkscape:connector-curvature="0" /><path
       d="m 34.13,31.07 c -1.18,0 -2.15,0.96 -2.15,2.15 0,1.19 0.96,2.15 2.15,2.15 1.19,0 2.15,-0.96 2.15,-2.15 0,-1.19 -0.97,-2.15 -2.15,-2.15 z m 0,3.29 c -0.63,0 -1.15,-0.51 -1.15,-1.15 0,-0.64 0.51,-1.15 1.15,-1.15 0.64,0 1.15,0.51 1.15,1.15 0,0.64 -0.52,1.15 -1.15,1.15 z"
       id="path8"
       inkscape:connector-curvature="0" /><path
       d="m 41.13,31.07 c -1.18,0 -2.15,0.96 -2.15,2.15 0,1.19 0.96,2.15 2.15,2.15 1.19,0 2.15,-0.96 2.15,-2.15 0,-1.19 -0.97,-2.15 -2.15,-2.15 z m 0,3.29 c -0.63,0 -1.15,-0.51 -1.15,-1.15 0,-0.64 0.51,-1.15 1.15,-1.15 0.64,0 1.15,0.51 1.15,1.15 0,0.64 -0.52,1.15 -1.15,1.15 z"
       id="path10"
       inkscape:connector-curvature="0" /><circle
       cx="71"
       cy="33.220001"
       r="1.17"
       id="circle12" /><circle
       cx="65"
       cy="33.220001"
       r="1.17"
       id="circle14" /><circle
       cx="59"
       cy="33.220001"
       r="1.17"
       id="circle16" /><path
       d="m 77.32,26.77 -17.54,0 c -2.74,-2.67 -6.35,-4.15 -10.19,-4.15 -3.84,0 -7.43,1.48 -10.18,4.15 l -17.7,0 c -2.03,0 -3.69,1.65 -3.69,3.69 l 0,38.32 c 0,2.03 1.65,3.69 3.69,3.69 l 1.92,0 0.75,4.53 c 0.15,0.88 0.9,1.53 1.8,1.53 l 1.41,0 c 0.97,0 1.76,-0.76 1.82,-1.71 l 0.83,-4.34 38.41,0 0.83,4.34 c 0.06,0.95 0.85,1.71 1.82,1.71 l 1.41,0 c 0.9,0 1.65,-0.64 1.8,-1.53 l 0.75,-4.53 2.05,0 c 2.03,0 3.69,-1.65 3.69,-3.69 l 0,-38.32 c 0,-2.04 -1.65,-3.69 -3.68,-3.69 z M 49.59,24.62 c 2.55,0 4.98,0.75 7.04,2.15 l -14.08,0 c 2.07,-1.39 4.49,-2.15 7.04,-2.15 z m -22.15,51.89 -1.1,0.01 -0.67,-4.05 2.55,0 -0.78,4.04 z m 45.13,0.01 -1.1,0 -0.78,-4.05 2.55,0 -0.67,4.05 z m 4.75,-6.05 -1.72,0 -7.32,0 -37.65,0 -7.32,0 -1.58,0 c -0.67,0 -1.25,-0.4 -1.52,-0.97 l 58.63,0 c -0.28,0.57 -0.85,0.97 -1.52,0.97 z M 20.97,45.1 c 0.33,0 0.59,0.27 0.59,0.59 0,0.33 -0.27,0.59 -0.59,0.59 -0.32,0 -0.59,-0.27 -0.59,-0.59 0,-0.32 0.26,-0.59 0.59,-0.59 z m -0.59,-5.41 c 0,-0.33 0.27,-0.59 0.59,-0.59 0.32,0 0.59,0.27 0.59,0.59 0,0.33 -0.27,0.59 -0.59,0.59 -0.32,0 -0.59,-0.26 -0.59,-0.59 z m 0.59,11.41 c 0.33,0 0.59,0.27 0.59,0.59 0,0.33 -0.27,0.59 -0.59,0.59 -0.32,0 -0.59,-0.27 -0.59,-0.59 0,-0.32 0.26,-0.59 0.59,-0.59 z m 0,6 c 0.33,0 0.59,0.27 0.59,0.59 0,0.33 -0.27,0.59 -0.59,0.59 -0.32,0 -0.59,-0.27 -0.59,-0.59 0,-0.32 0.26,-0.59 0.59,-0.59 z m 0,6 c 0.33,0 0.59,0.27 0.59,0.59 0,0.33 -0.27,0.59 -0.59,0.59 -0.32,0 -0.59,-0.27 -0.59,-0.59 0,-0.32 0.26,-0.59 0.59,-0.59 z m 2,-15 c 0.33,0 0.59,0.27 0.59,0.59 0,0.33 -0.27,0.59 -0.59,0.59 -0.32,0 -0.59,-0.27 -0.59,-0.59 0,-0.32 0.26,-0.59 0.59,-0.59 z m -0.59,-5.41 c 0,-0.33 0.27,-0.59 0.59,-0.59 0.32,0 0.59,0.27 0.59,0.59 0,0.33 -0.27,0.59 -0.59,0.59 -0.32,0 -0.59,-0.26 -0.59,-0.59 z m 0.59,11.41 c 0.33,0 0.59,0.27 0.59,0.59 0,0.33 -0.27,0.59 -0.59,0.59 -0.32,0 -0.59,-0.27 -0.59,-0.59 0,-0.32 0.26,-0.59 0.59,-0.59 z m 0,6 c 0.33,0 0.59,0.27 0.59,0.59 0,0.33 -0.27,0.59 -0.59,0.59 -0.32,0 -0.59,-0.27 -0.59,-0.59 0,-0.32 0.26,-0.59 0.59,-0.59 z m 0,6 c 0.33,0 0.59,0.27 0.59,0.59 0,0.33 -0.27,0.59 -0.59,0.59 -0.32,0 -0.59,-0.27 -0.59,-0.59 0,-0.32 0.26,-0.59 0.59,-0.59 z m 2.57,-21 c 0.33,0 0.59,0.27 0.59,0.59 0,0.33 -0.27,0.59 -0.59,0.59 -0.32,0 -0.59,-0.27 -0.59,-0.59 -0.01,-0.32 0.26,-0.59 0.59,-0.59 z m -0.6,-5.41 c 0,-0.33 0.27,-0.59 0.59,-0.59 0.32,0 0.59,0.27 0.59,0.59 0,0.33 -0.27,0.59 -0.59,0.59 -0.32,0 -0.59,-0.26 -0.59,-0.59 z m 0.6,11.41 c 0.33,0 0.59,0.27 0.59,0.59 0,0.33 -0.27,0.59 -0.59,0.59 -0.32,0 -0.59,-0.27 -0.59,-0.59 -0.01,-0.32 0.26,-0.59 0.59,-0.59 z m 0,6 c 0.33,0 0.59,0.27 0.59,0.59 0,0.33 -0.27,0.59 -0.59,0.59 -0.32,0 -0.59,-0.27 -0.59,-0.59 -0.01,-0.32 0.26,-0.59 0.59,-0.59 z m 0,6 c 0.33,0 0.59,0.27 0.59,0.59 0,0.33 -0.27,0.59 -0.59,0.59 -0.32,0 -0.59,-0.27 -0.59,-0.59 -0.01,-0.32 0.26,-0.59 0.59,-0.59 z m 2,-15 c 0.33,0 0.59,0.27 0.59,0.59 0,0.33 -0.27,0.59 -0.59,0.59 -0.32,0 -0.59,-0.27 -0.59,-0.59 -0.01,-0.32 0.26,-0.59 0.59,-0.59 z m -0.6,-5.41 c 0,-0.33 0.27,-0.59 0.59,-0.59 0.32,0 0.59,0.27 0.59,0.59 0,0.33 -0.27,0.59 -0.59,0.59 -0.32,0 -0.59,-0.26 -0.59,-0.59 z m 0.6,11.41 c 0.33,0 0.59,0.27 0.59,0.59 0,0.33 -0.27,0.59 -0.59,0.59 -0.32,0 -0.59,-0.27 -0.59,-0.59 -0.01,-0.32 0.26,-0.59 0.59,-0.59 z m 0,6 c 0.33,0 0.59,0.27 0.59,0.59 0,0.33 -0.27,0.59 -0.59,0.59 -0.32,0 -0.59,-0.27 -0.59,-0.59 -0.01,-0.32 0.26,-0.59 0.59,-0.59 z m 0,6 c 0.33,0 0.59,0.27 0.59,0.59 0,0.33 -0.27,0.59 -0.59,0.59 -0.32,0 -0.59,-0.27 -0.59,-0.59 -0.01,-0.32 0.26,-0.59 0.59,-0.59 z m 2.56,-21 c 0.33,0 0.59,0.27 0.59,0.59 0,0.33 -0.27,0.59 -0.59,0.59 -0.33,0 -0.59,-0.27 -0.59,-0.59 0,-0.32 0.27,-0.59 0.59,-0.59 z m -0.59,-5.41 c 0,-0.33 0.27,-0.59 0.59,-0.59 0.33,0 0.59,0.27 0.59,0.59 0,0.33 -0.27,0.59 -0.59,0.59 -0.32,0.01 -0.59,-0.26 -0.59,-0.59 z M 30.1,51.1 c 0.33,0 0.59,0.27 0.59,0.59 0,0.33 -0.27,0.59 -0.59,0.59 -0.33,0 -0.59,-0.27 -0.59,-0.59 0,-0.32 0.27,-0.59 0.59,-0.59 z m 0,6 c 0.33,0 0.59,0.27 0.59,0.59 0,0.33 -0.27,0.59 -0.59,0.59 -0.33,0 -0.59,-0.27 -0.59,-0.59 0,-0.32 0.27,-0.59 0.59,-0.59 z m 0,6 c 0.33,0 0.59,0.27 0.59,0.59 0,0.33 -0.27,0.59 -0.59,0.59 -0.33,0 -0.59,-0.27 -0.59,-0.59 0,-0.32 0.27,-0.59 0.59,-0.59 z m 2,-15 c 0.33,0 0.59,0.27 0.59,0.59 0,0.33 -0.27,0.59 -0.59,0.59 -0.33,0 -0.59,-0.27 -0.59,-0.59 0,-0.32 0.27,-0.59 0.59,-0.59 z m -0.59,-5.41 c 0,-0.33 0.27,-0.59 0.59,-0.59 0.33,0 0.59,0.27 0.59,0.59 0,0.33 -0.27,0.59 -0.59,0.59 -0.32,0.01 -0.59,-0.26 -0.59,-0.59 z M 32.1,54.1 c 0.33,0 0.59,0.27 0.59,0.59 0,0.33 -0.27,0.59 -0.59,0.59 -0.33,0 -0.59,-0.27 -0.59,-0.59 0,-0.32 0.27,-0.59 0.59,-0.59 z m 0,6 c 0.33,0 0.59,0.27 0.59,0.59 0,0.33 -0.27,0.59 -0.59,0.59 -0.33,0 -0.59,-0.27 -0.59,-0.59 0,-0.32 0.27,-0.59 0.59,-0.59 z m 0,6 c 0.33,0 0.59,0.27 0.59,0.59 0,0.33 -0.27,0.59 -0.59,0.59 -0.33,0 -0.59,-0.27 -0.59,-0.59 0,-0.32 0.27,-0.59 0.59,-0.59 z m 2.57,-21 c 0.33,0 0.59,0.27 0.59,0.59 0,0.33 -0.27,0.59 -0.59,0.59 -0.33,0 -0.59,-0.27 -0.59,-0.59 -0.01,-0.32 0.26,-0.59 0.59,-0.59 z m -0.6,-5.41 c 0,-0.33 0.27,-0.59 0.59,-0.59 0.33,0 0.59,0.27 0.59,0.59 0,0.33 -0.27,0.59 -0.59,0.59 -0.32,0.01 -0.59,-0.26 -0.59,-0.59 z m 0.6,11.41 c 0.33,0 0.59,0.27 0.59,0.59 0,0.33 -0.27,0.59 -0.59,0.59 -0.33,0 -0.59,-0.27 -0.59,-0.59 -0.01,-0.32 0.26,-0.59 0.59,-0.59 z m 0,6 c 0.33,0 0.59,0.27 0.59,0.59 0,0.33 -0.27,0.59 -0.59,0.59 -0.33,0 -0.59,-0.27 -0.59,-0.59 -0.01,-0.32 0.26,-0.59 0.59,-0.59 z m 0,6 c 0.33,0 0.59,0.27 0.59,0.59 0,0.33 -0.27,0.59 -0.59,0.59 -0.33,0 -0.59,-0.27 -0.59,-0.59 -0.01,-0.32 0.26,-0.59 0.59,-0.59 z m 2,-15 c 0.33,0 0.59,0.27 0.59,0.59 0,0.33 -0.27,0.59 -0.59,0.59 -0.33,0 -0.59,-0.27 -0.59,-0.59 -0.01,-0.32 0.26,-0.59 0.59,-0.59 z m -0.6,-5.41 c 0,-0.33 0.27,-0.59 0.59,-0.59 0.33,0 0.59,0.27 0.59,0.59 0,0.33 -0.27,0.59 -0.59,0.59 -0.32,0.01 -0.59,-0.26 -0.59,-0.59 z m 0.6,11.41 c 0.33,0 0.59,0.27 0.59,0.59 0,0.33 -0.27,0.59 -0.59,0.59 -0.33,0 -0.59,-0.27 -0.59,-0.59 -0.01,-0.32 0.26,-0.59 0.59,-0.59 z m 0,6 c 0.33,0 0.59,0.27 0.59,0.59 0,0.33 -0.27,0.59 -0.59,0.59 -0.33,0 -0.59,-0.27 -0.59,-0.59 -0.01,-0.32 0.26,-0.59 0.59,-0.59 z m 0,6 c 0.33,0 0.59,0.27 0.59,0.59 0,0.33 -0.27,0.59 -0.59,0.59 -0.33,0 -0.59,-0.27 -0.59,-0.59 -0.01,-0.32 0.26,-0.59 0.59,-0.59 z m 2.56,-21 c 0.33,0 0.59,0.27 0.59,0.59 0,0.33 -0.27,0.59 -0.59,0.59 -0.33,0 -0.59,-0.27 -0.59,-0.59 0,-0.32 0.27,-0.59 0.59,-0.59 z m -0.59,-5.41 c 0,-0.33 0.27,-0.59 0.59,-0.59 0.33,0 0.59,0.27 0.59,0.59 0,0.33 -0.27,0.59 -0.59,0.59 -0.32,0.01 -0.59,-0.26 -0.59,-0.59 z m 0.59,11.41 c 0.33,0 0.59,0.27 0.59,0.59 0,0.33 -0.27,0.59 -0.59,0.59 -0.33,0 -0.59,-0.27 -0.59,-0.59 0,-0.32 0.27,-0.59 0.59,-0.59 z m 0,6 c 0.33,0 0.59,0.27 0.59,0.59 0,0.33 -0.27,0.59 -0.59,0.59 -0.33,0 -0.59,-0.27 -0.59,-0.59 0,-0.32 0.27,-0.59 0.59,-0.59 z m 0,6 c 0.33,0 0.59,0.27 0.59,0.59 0,0.33 -0.27,0.59 -0.59,0.59 -0.33,0 -0.59,-0.27 -0.59,-0.59 0,-0.32 0.27,-0.59 0.59,-0.59 z m 2,-15 c 0.33,0 0.59,0.27 0.59,0.59 0,0.33 -0.27,0.59 -0.59,0.59 -0.33,0 -0.59,-0.27 -0.59,-0.59 0,-0.32 0.27,-0.59 0.59,-0.59 z m -0.59,-5.41 c 0,-0.33 0.27,-0.59 0.59,-0.59 0.33,0 0.59,0.27 0.59,0.59 0,0.33 -0.27,0.59 -0.59,0.59 -0.32,0.01 -0.59,-0.26 -0.59,-0.59 z m 0.59,11.41 c 0.33,0 0.59,0.27 0.59,0.59 0,0.33 -0.27,0.59 -0.59,0.59 -0.33,0 -0.59,-0.27 -0.59,-0.59 0,-0.32 0.27,-0.59 0.59,-0.59 z m 0,6 c 0.33,0 0.59,0.27 0.59,0.59 0,0.33 -0.27,0.59 -0.59,0.59 -0.33,0 -0.59,-0.27 -0.59,-0.59 0,-0.32 0.27,-0.59 0.59,-0.59 z m 0,6 c 0.33,0 0.59,0.27 0.59,0.59 0,0.33 -0.27,0.59 -0.59,0.59 -0.33,0 -0.59,-0.27 -0.59,-0.59 0,-0.32 0.27,-0.59 0.59,-0.59 z m 2.57,-21 c 0.33,0 0.59,0.27 0.59,0.59 0,0.33 -0.27,0.59 -0.59,0.59 -0.32,0 -0.59,-0.27 -0.59,-0.59 0,-0.32 0.26,-0.59 0.59,-0.59 z m -0.59,-5.41 c 0,-0.33 0.27,-0.59 0.59,-0.59 0.32,0 0.59,0.27 0.59,0.59 0,0.33 -0.27,0.59 -0.59,0.59 -0.32,0 -0.59,-0.26 -0.59,-0.59 z M 43.8,51.1 c 0.33,0 0.59,0.27 0.59,0.59 0,0.33 -0.27,0.59 -0.59,0.59 -0.32,0 -0.59,-0.27 -0.59,-0.59 0,-0.32 0.26,-0.59 0.59,-0.59 z m 0,6 c 0.33,0 0.59,0.27 0.59,0.59 0,0.33 -0.27,0.59 -0.59,0.59 -0.32,0 -0.59,-0.27 -0.59,-0.59 0,-0.32 0.26,-0.59 0.59,-0.59 z m 0,6 c 0.33,0 0.59,0.27 0.59,0.59 0,0.33 -0.27,0.59 -0.59,0.59 -0.32,0 -0.59,-0.27 -0.59,-0.59 0,-0.32 0.26,-0.59 0.59,-0.59 z m 2,-15 c 0.33,0 0.59,0.27 0.59,0.59 0,0.33 -0.27,0.59 -0.59,0.59 -0.32,0 -0.59,-0.27 -0.59,-0.59 0,-0.32 0.26,-0.59 0.59,-0.59 z m -0.59,-5.41 c 0,-0.33 0.27,-0.59 0.59,-0.59 0.32,0 0.59,0.27 0.59,0.59 0,0.33 -0.27,0.59 -0.59,0.59 -0.32,0 -0.59,-0.26 -0.59,-0.59 z M 45.8,54.1 c 0.33,0 0.59,0.27 0.59,0.59 0,0.33 -0.27,0.59 -0.59,0.59 -0.32,0 -0.59,-0.27 -0.59,-0.59 0,-0.32 0.26,-0.59 0.59,-0.59 z m 0,6 c 0.33,0 0.59,0.27 0.59,0.59 0,0.33 -0.27,0.59 -0.59,0.59 -0.32,0 -0.59,-0.27 -0.59,-0.59 0,-0.32 0.26,-0.59 0.59,-0.59 z m 0,6 c 0.33,0 0.59,0.27 0.59,0.59 0,0.33 -0.27,0.59 -0.59,0.59 -0.32,0 -0.59,-0.27 -0.59,-0.59 0,-0.32 0.26,-0.59 0.59,-0.59 z m 2.57,-21 c 0.33,0 0.59,0.27 0.59,0.59 0,0.33 -0.27,0.59 -0.59,0.59 -0.32,0 -0.59,-0.27 -0.59,-0.59 -0.01,-0.32 0.26,-0.59 0.59,-0.59 z m -0.6,-5.41 c 0,-0.33 0.27,-0.59 0.59,-0.59 0.32,0 0.59,0.27 0.59,0.59 0,0.33 -0.27,0.59 -0.59,0.59 -0.32,0 -0.59,-0.26 -0.59,-0.59 z m 0.6,11.41 c 0.33,0 0.59,0.27 0.59,0.59 0,0.33 -0.27,0.59 -0.59,0.59 -0.32,0 -0.59,-0.27 -0.59,-0.59 -0.01,-0.32 0.26,-0.59 0.59,-0.59 z m 0,6 c 0.33,0 0.59,0.27 0.59,0.59 0,0.33 -0.27,0.59 -0.59,0.59 -0.32,0 -0.59,-0.27 -0.59,-0.59 -0.01,-0.32 0.26,-0.59 0.59,-0.59 z m 0,6 c 0.33,0 0.59,0.27 0.59,0.59 0,0.33 -0.27,0.59 -0.59,0.59 -0.32,0 -0.59,-0.27 -0.59,-0.59 -0.01,-0.32 0.26,-0.59 0.59,-0.59 z m 2,-15 c 0.33,0 0.59,0.27 0.59,0.59 0,0.33 -0.27,0.59 -0.59,0.59 -0.32,0 -0.59,-0.27 -0.59,-0.59 -0.01,-0.32 0.26,-0.59 0.59,-0.59 z m -0.6,-5.41 c 0,-0.33 0.27,-0.59 0.59,-0.59 0.32,0 0.59,0.27 0.59,0.59 0,0.33 -0.27,0.59 -0.59,0.59 -0.32,0 -0.59,-0.26 -0.59,-0.59 z m 0.6,11.41 c 0.33,0 0.59,0.27 0.59,0.59 0,0.33 -0.27,0.59 -0.59,0.59 -0.32,0 -0.59,-0.27 -0.59,-0.59 -0.01,-0.32 0.26,-0.59 0.59,-0.59 z m 0,6 c 0.33,0 0.59,0.27 0.59,0.59 0,0.33 -0.27,0.59 -0.59,0.59 -0.32,0 -0.59,-0.27 -0.59,-0.59 -0.01,-0.32 0.26,-0.59 0.59,-0.59 z m 0,6 c 0.33,0 0.59,0.27 0.59,0.59 0,0.33 -0.27,0.59 -0.59,0.59 -0.32,0 -0.59,-0.27 -0.59,-0.59 -0.01,-0.32 0.26,-0.59 0.59,-0.59 z m 2.56,-21 c 0.33,0 0.59,0.27 0.59,0.59 0,0.33 -0.27,0.59 -0.59,0.59 -0.32,0 -0.59,-0.27 -0.59,-0.59 0,-0.32 0.26,-0.59 0.59,-0.59 z m -0.59,-5.41 c 0,-0.33 0.27,-0.59 0.59,-0.59 0.32,0 0.59,0.27 0.59,0.59 0,0.33 -0.27,0.59 -0.59,0.59 -0.32,0 -0.59,-0.26 -0.59,-0.59 z m 0.59,11.41 c 0.33,0 0.59,0.27 0.59,0.59 0,0.33 -0.27,0.59 -0.59,0.59 -0.32,0 -0.59,-0.27 -0.59,-0.59 0,-0.32 0.26,-0.59 0.59,-0.59 z m 0,6 c 0.33,0 0.59,0.27 0.59,0.59 0,0.33 -0.27,0.59 -0.59,0.59 -0.32,0 -0.59,-0.27 -0.59,-0.59 0,-0.32 0.26,-0.59 0.59,-0.59 z m 0,6 c 0.33,0 0.59,0.27 0.59,0.59 0,0.33 -0.27,0.59 -0.59,0.59 -0.32,0 -0.59,-0.27 -0.59,-0.59 0,-0.32 0.26,-0.59 0.59,-0.59 z m 2,-15 c 0.33,0 0.59,0.27 0.59,0.59 0,0.33 -0.27,0.59 -0.59,0.59 -0.32,0 -0.59,-0.27 -0.59,-0.59 0,-0.32 0.26,-0.59 0.59,-0.59 z m -0.59,-5.41 c 0,-0.33 0.27,-0.59 0.59,-0.59 0.32,0 0.59,0.27 0.59,0.59 0,0.33 -0.27,0.59 -0.59,0.59 -0.32,0 -0.59,-0.26 -0.59,-0.59 z m 0.59,11.41 c 0.33,0 0.59,0.27 0.59,0.59 0,0.33 -0.27,0.59 -0.59,0.59 -0.32,0 -0.59,-0.27 -0.59,-0.59 0,-0.32 0.26,-0.59 0.59,-0.59 z m 0,6 c 0.33,0 0.59,0.27 0.59,0.59 0,0.33 -0.27,0.59 -0.59,0.59 -0.32,0 -0.59,-0.27 -0.59,-0.59 0,-0.32 0.26,-0.59 0.59,-0.59 z m 0,6 c 0.33,0 0.59,0.27 0.59,0.59 0,0.33 -0.27,0.59 -0.59,0.59 -0.32,0 -0.59,-0.27 -0.59,-0.59 0,-0.32 0.26,-0.59 0.59,-0.59 z m 2.57,-21 c 0.33,0 0.59,0.27 0.59,0.59 0,0.33 -0.27,0.59 -0.59,0.59 -0.33,0 -0.59,-0.27 -0.59,-0.59 -0.01,-0.32 0.26,-0.59 0.59,-0.59 z m -0.6,-5.41 c 0,-0.33 0.27,-0.59 0.59,-0.59 0.33,0 0.59,0.27 0.59,0.59 0,0.33 -0.27,0.59 -0.59,0.59 -0.32,0.01 -0.59,-0.26 -0.59,-0.59 z m 0.6,11.41 c 0.33,0 0.59,0.27 0.59,0.59 0,0.33 -0.27,0.59 -0.59,0.59 -0.33,0 -0.59,-0.27 -0.59,-0.59 -0.01,-0.32 0.26,-0.59 0.59,-0.59 z m 0,6 c 0.33,0 0.59,0.27 0.59,0.59 0,0.33 -0.27,0.59 -0.59,0.59 -0.33,0 -0.59,-0.27 -0.59,-0.59 -0.01,-0.32 0.26,-0.59 0.59,-0.59 z m 0,6 c 0.33,0 0.59,0.27 0.59,0.59 0,0.33 -0.27,0.59 -0.59,0.59 -0.33,0 -0.59,-0.27 -0.59,-0.59 -0.01,-0.32 0.26,-0.59 0.59,-0.59 z m 2,-15 c 0.33,0 0.59,0.27 0.59,0.59 0,0.33 -0.27,0.59 -0.59,0.59 -0.33,0 -0.59,-0.27 -0.59,-0.59 -0.01,-0.32 0.26,-0.59 0.59,-0.59 z m -0.6,-5.41 c 0,-0.33 0.27,-0.59 0.59,-0.59 0.33,0 0.59,0.27 0.59,0.59 0,0.33 -0.27,0.59 -0.59,0.59 -0.32,0.01 -0.59,-0.26 -0.59,-0.59 z m 0.6,11.41 c 0.33,0 0.59,0.27 0.59,0.59 0,0.33 -0.27,0.59 -0.59,0.59 -0.33,0 -0.59,-0.27 -0.59,-0.59 -0.01,-0.32 0.26,-0.59 0.59,-0.59 z m 0,6 c 0.33,0 0.59,0.27 0.59,0.59 0,0.33 -0.27,0.59 -0.59,0.59 -0.33,0 -0.59,-0.27 -0.59,-0.59 -0.01,-0.32 0.26,-0.59 0.59,-0.59 z m 0,6 c 0.33,0 0.59,0.27 0.59,0.59 0,0.33 -0.27,0.59 -0.59,0.59 -0.33,0 -0.59,-0.27 -0.59,-0.59 -0.01,-0.32 0.26,-0.59 0.59,-0.59 z m 2.56,-21 c 0.33,0 0.59,0.27 0.59,0.59 0,0.33 -0.27,0.59 -0.59,0.59 -0.33,0 -0.59,-0.27 -0.59,-0.59 0,-0.32 0.26,-0.59 0.59,-0.59 z m -0.59,-5.41 c 0,-0.33 0.27,-0.59 0.59,-0.59 0.33,0 0.59,0.27 0.59,0.59 0,0.33 -0.27,0.59 -0.59,0.59 -0.33,0.01 -0.59,-0.26 -0.59,-0.59 z m 0.59,11.41 c 0.33,0 0.59,0.27 0.59,0.59 0,0.33 -0.27,0.59 -0.59,0.59 -0.33,0 -0.59,-0.27 -0.59,-0.59 0,-0.32 0.26,-0.59 0.59,-0.59 z m 0,6 c 0.33,0 0.59,0.27 0.59,0.59 0,0.33 -0.27,0.59 -0.59,0.59 -0.33,0 -0.59,-0.27 -0.59,-0.59 0,-0.32 0.26,-0.59 0.59,-0.59 z m 0,6 c 0.33,0 0.59,0.27 0.59,0.59 0,0.33 -0.27,0.59 -0.59,0.59 -0.33,0 -0.59,-0.27 -0.59,-0.59 0,-0.32 0.26,-0.59 0.59,-0.59 z m 2,-15 c 0.33,0 0.59,0.27 0.59,0.59 0,0.33 -0.27,0.59 -0.59,0.59 -0.33,0 -0.59,-0.27 -0.59,-0.59 0,-0.32 0.26,-0.59 0.59,-0.59 z m -0.59,-5.41 c 0,-0.33 0.27,-0.59 0.59,-0.59 0.33,0 0.59,0.27 0.59,0.59 0,0.33 -0.27,0.59 -0.59,0.59 -0.33,0.01 -0.59,-0.26 -0.59,-0.59 z m 0.59,11.41 c 0.33,0 0.59,0.27 0.59,0.59 0,0.33 -0.27,0.59 -0.59,0.59 -0.33,0 -0.59,-0.27 -0.59,-0.59 0,-0.32 0.26,-0.59 0.59,-0.59 z m 0,6 c 0.33,0 0.59,0.27 0.59,0.59 0,0.33 -0.27,0.59 -0.59,0.59 -0.33,0 -0.59,-0.27 -0.59,-0.59 0,-0.32 0.26,-0.59 0.59,-0.59 z m 0,6 c 0.33,0 0.59,0.27 0.59,0.59 0,0.33 -0.27,0.59 -0.59,0.59 -0.33,0 -0.59,-0.27 -0.59,-0.59 0,-0.32 0.26,-0.59 0.59,-0.59 z m 2.57,-21 c 0.33,0 0.59,0.27 0.59,0.59 0,0.33 -0.27,0.59 -0.59,0.59 -0.32,0 -0.59,-0.27 -0.59,-0.59 -0.01,-0.32 0.26,-0.59 0.59,-0.59 z m -0.6,-5.41 c 0,-0.33 0.27,-0.59 0.59,-0.59 0.32,0 0.59,0.27 0.59,0.59 0,0.33 -0.27,0.59 -0.59,0.59 -0.32,0 -0.59,-0.26 -0.59,-0.59 z m 0.6,11.41 c 0.33,0 0.59,0.27 0.59,0.59 0,0.33 -0.27,0.59 -0.59,0.59 -0.32,0 -0.59,-0.27 -0.59,-0.59 -0.01,-0.32 0.26,-0.59 0.59,-0.59 z m 0,6 c 0.33,0 0.59,0.27 0.59,0.59 0,0.33 -0.27,0.59 -0.59,0.59 -0.32,0 -0.59,-0.27 -0.59,-0.59 -0.01,-0.32 0.26,-0.59 0.59,-0.59 z m 0,6 c 0.33,0 0.59,0.27 0.59,0.59 0,0.33 -0.27,0.59 -0.59,0.59 -0.32,0 -0.59,-0.27 -0.59,-0.59 -0.01,-0.32 0.26,-0.59 0.59,-0.59 z m 2,-15 c 0.33,0 0.59,0.27 0.59,0.59 0,0.33 -0.27,0.59 -0.59,0.59 -0.32,0 -0.59,-0.27 -0.59,-0.59 -0.01,-0.32 0.26,-0.59 0.59,-0.59 z m -0.6,-5.41 c 0,-0.33 0.27,-0.59 0.59,-0.59 0.32,0 0.59,0.27 0.59,0.59 0,0.33 -0.27,0.59 -0.59,0.59 -0.32,0 -0.59,-0.26 -0.59,-0.59 z m 0.6,11.41 c 0.33,0 0.59,0.27 0.59,0.59 0,0.33 -0.27,0.59 -0.59,0.59 -0.32,0 -0.59,-0.27 -0.59,-0.59 -0.01,-0.32 0.26,-0.59 0.59,-0.59 z m 0,6 c 0.33,0 0.59,0.27 0.59,0.59 0,0.33 -0.27,0.59 -0.59,0.59 -0.32,0 -0.59,-0.27 -0.59,-0.59 -0.01,-0.32 0.26,-0.59 0.59,-0.59 z m 0,6 c 0.33,0 0.59,0.27 0.59,0.59 0,0.33 -0.27,0.59 -0.59,0.59 -0.32,0 -0.59,-0.27 -0.59,-0.59 -0.01,-0.32 0.26,-0.59 0.59,-0.59 z m 2.56,-21 c 0.33,0 0.59,0.27 0.59,0.59 0,0.33 -0.27,0.59 -0.59,0.59 -0.32,0 -0.59,-0.27 -0.59,-0.59 0,-0.32 0.27,-0.59 0.59,-0.59 z M 70.6,39.69 c 0,-0.33 0.27,-0.59 0.59,-0.59 0.32,0 0.59,0.27 0.59,0.59 0,0.33 -0.27,0.59 -0.59,0.59 -0.32,0 -0.59,-0.26 -0.59,-0.59 z m 0.59,11.41 c 0.33,0 0.59,0.27 0.59,0.59 0,0.33 -0.27,0.59 -0.59,0.59 -0.32,0 -0.59,-0.27 -0.59,-0.59 0,-0.32 0.27,-0.59 0.59,-0.59 z m 0,6 c 0.33,0 0.59,0.27 0.59,0.59 0,0.33 -0.27,0.59 -0.59,0.59 -0.32,0 -0.59,-0.27 -0.59,-0.59 0,-0.32 0.27,-0.59 0.59,-0.59 z m 0,6 c 0.33,0 0.59,0.27 0.59,0.59 0,0.33 -0.27,0.59 -0.59,0.59 -0.32,0 -0.59,-0.27 -0.59,-0.59 0,-0.32 0.27,-0.59 0.59,-0.59 z m 2,-15 c 0.33,0 0.59,0.27 0.59,0.59 0,0.33 -0.27,0.59 -0.59,0.59 -0.32,0 -0.59,-0.27 -0.59,-0.59 0,-0.32 0.27,-0.59 0.59,-0.59 z M 72.6,42.69 c 0,-0.33 0.27,-0.59 0.59,-0.59 0.32,0 0.59,0.27 0.59,0.59 0,0.33 -0.27,0.59 -0.59,0.59 -0.32,0 -0.59,-0.26 -0.59,-0.59 z m 0.59,11.41 c 0.33,0 0.59,0.27 0.59,0.59 0,0.33 -0.27,0.59 -0.59,0.59 -0.32,0 -0.59,-0.27 -0.59,-0.59 0,-0.32 0.27,-0.59 0.59,-0.59 z m 0,6 c 0.33,0 0.59,0.27 0.59,0.59 0,0.33 -0.27,0.59 -0.59,0.59 -0.32,0 -0.59,-0.27 -0.59,-0.59 0,-0.32 0.27,-0.59 0.59,-0.59 z m 0,6 c 0.33,0 0.59,0.27 0.59,0.59 0,0.33 -0.27,0.59 -0.59,0.59 -0.32,0 -0.59,-0.27 -0.59,-0.59 0,-0.32 0.27,-0.59 0.59,-0.59 z m 2.57,-21 c 0.33,0 0.59,0.27 0.59,0.59 0,0.33 -0.27,0.59 -0.59,0.59 -0.32,0 -0.59,-0.27 -0.59,-0.59 -0.01,-0.32 0.26,-0.59 0.59,-0.59 z m -0.6,-5.41 c 0,-0.33 0.27,-0.59 0.59,-0.59 0.32,0 0.59,0.27 0.59,0.59 0,0.33 -0.27,0.59 -0.59,0.59 -0.32,0 -0.59,-0.26 -0.59,-0.59 z m 0.6,11.41 c 0.33,0 0.59,0.27 0.59,0.59 0,0.33 -0.27,0.59 -0.59,0.59 -0.32,0 -0.59,-0.27 -0.59,-0.59 -0.01,-0.32 0.26,-0.59 0.59,-0.59 z m 0,6 c 0.33,0 0.59,0.27 0.59,0.59 0,0.33 -0.27,0.59 -0.59,0.59 -0.32,0 -0.59,-0.27 -0.59,-0.59 -0.01,-0.32 0.26,-0.59 0.59,-0.59 z m 0,6 c 0.33,0 0.59,0.27 0.59,0.59 0,0.33 -0.27,0.59 -0.59,0.59 -0.32,0 -0.59,-0.27 -0.59,-0.59 -0.01,-0.32 0.26,-0.59 0.59,-0.59 z m 2,-15 c 0.33,0 0.59,0.27 0.59,0.59 0,0.33 -0.27,0.59 -0.59,0.59 -0.32,0 -0.59,-0.27 -0.59,-0.59 -0.01,-0.32 0.26,-0.59 0.59,-0.59 z m -0.6,-5.41 c 0,-0.33 0.27,-0.59 0.59,-0.59 0.32,0 0.59,0.27 0.59,0.59 0,0.33 -0.27,0.59 -0.59,0.59 -0.32,0 -0.59,-0.26 -0.59,-0.59 z m 0.6,11.41 c 0.33,0 0.59,0.27 0.59,0.59 0,0.33 -0.27,0.59 -0.59,0.59 -0.32,0 -0.59,-0.27 -0.59,-0.59 -0.01,-0.32 0.26,-0.59 0.59,-0.59 z m 0,6 c 0.33,0 0.59,0.27 0.59,0.59 0,0.33 -0.27,0.59 -0.59,0.59 -0.32,0 -0.59,-0.27 -0.59,-0.59 -0.01,-0.32 0.26,-0.59 0.59,-0.59 z m 0,6 c 0.33,0 0.59,0.27 0.59,0.59 0,0.33 -0.27,0.59 -0.59,0.59 -0.32,0 -0.59,-0.27 -0.59,-0.59 -0.01,-0.32 0.26,-0.59 0.59,-0.59 z M 79,37.46 l -58.97,0 0,-7 c 0,-0.93 0.76,-1.69 1.69,-1.69 l 55.6,0 c 0.93,0 1.69,0.76 1.69,1.69 l 0,7 z"
       id="path18"
       inkscape:connector-curvature="0" /><path
       d="m 50.37,29.92 c -0.28,0 -0.5,0.22 -0.5,0.5 l 0,5 c 0,0.28 0.22,0.5 0.5,0.5 0.28,0 0.5,-0.22 0.5,-0.5 l 0,-5 c 0,-0.28 -0.23,-0.5 -0.5,-0.5 z"
       id="path20"
       inkscape:connector-curvature="0" /></g></svg>