<?xml version="1.0" encoding="UTF-8" standalone="no"?>
<svg
   xmlns:dc="http://purl.org/dc/elements/1.1/"
   xmlns:cc="http://creativecommons.org/ns#"
   xmlns:rdf="http://www.w3.org/1999/02/22-rdf-syntax-ns#"
   xmlns:svg="http://www.w3.org/2000/svg"
   xmlns="http://www.w3.org/2000/svg"
   xmlns:sodipodi="http://sodipodi.sourceforge.net/DTD/sodipodi-0.dtd"
   xmlns:inkscape="http://www.inkscape.org/namespaces/inkscape"
   version="1.1"
   x="0px"
   y="0px"
   viewBox="0 0 90.106133 73.054474"
   enable-background="new 0 0 100 100"
   xml:space="preserve"
   id="svg2"
   inkscape:version="0.91 r13725"
   sodipodi:docname="drum_parkjisun.svg"
   width="90.106133"
   height="73.054474"><metadata
     id="metadata54"><rdf:RDF><cc:Work
         rdf:about=""><dc:format>image/svg+xml</dc:format><dc:type
           rdf:resource="http://purl.org/dc/dcmitype/StillImage" /><dc:title></dc:title></cc:Work></rdf:RDF></metadata><defs
     id="defs52" /><sodipodi:namedview
     pagecolor="#ffffff"
     bordercolor="#666666"
     borderopacity="1"
     objecttolerance="10"
     gridtolerance="10"
     guidetolerance="10"
     inkscape:pageopacity="0"
     inkscape:pageshadow="2"
     inkscape:window-width="1920"
     inkscape:window-height="1017"
     id="namedview50"
     showgrid="false"
     fit-margin-top="0"
     fit-margin-left="0"
     fit-margin-right="0"
     fit-margin-bottom="0"
     inkscape:zoom="5.3400704"
     inkscape:cx="33.858042"
     inkscape:cy="32.251714"
     inkscape:window-x="-8"
     inkscape:window-y="-8"
     inkscape:window-maximized="1"
     inkscape:current-layer="svg2" /><g
     id="g4202"
     transform="translate(-4.9178679,-17.345523)"><path
       d="m 41.5,42.2 c 5.7,0.7 7.6,2.3 7.6,2.3 L 50.4,34 c 0,0 -1.9,-3 -7.7,-3.7 -0.7,-0.1 -1.4,-0.1 -2,-0.1 -4.3,0 -5.9,1.9 -5.9,1.9 l -1.3,10.4 c 0,0 1.3,-0.6 4.4,-0.6 1.1,0 2.2,0.1 3.6,0.3 z"
       id="path6"
       inkscape:connector-curvature="0"
       style="fill:#000000" /><path
       d="m 40.6,49.6 c 0.8,0.1 1.7,0.2 2.4,0.2 3.2,0 5.6,-0.8 5.7,-2.1 0.2,-1.6 -3.1,-3.4 -7.4,-3.9 -0.8,-0.1 -1.7,-0.2 -2.4,-0.2 -3.2,0 -5.6,0.8 -5.7,2.1 -0.2,1.6 3.1,3.3 7.4,3.9 z"
       id="path8"
       inkscape:connector-curvature="0"
       style="fill:#000000" /><path
       d="m 60.5,30.2 c -5.7,0.7 -7.7,3.7 -7.7,3.7 l 1.3,10.4 c 0,0 2,-1.6 7.6,-2.3 1.4,-0.2 2.5,-0.2 3.5,-0.2 3.1,0 4.4,0.6 4.4,0.6 L 68.4,32 c 0,0 -1.7,-1.9 -5.9,-1.9 -0.7,0 -1.3,0.1 -2,0.1 z"
       id="path10"
       inkscape:connector-curvature="0"
       style="fill:#000000" /><path
       d="m 64.3,43.5 c -0.8,0 -1.6,0 -2.4,0.2 -4.3,0.5 -7.6,2.3 -7.4,3.9 0.2,1.3 2.6,2.1 5.7,2.1 0.8,0 1.6,0 2.4,-0.2 4.3,-0.5 7.6,-2.3 7.4,-3.9 -0.1,-1.3 -2.5,-2.1 -5.7,-2.1 z"
       id="path12"
       inkscape:connector-curvature="0"
       style="fill:#000000" /><ellipse
       transform="matrix(0.30880793,0.95112442,-0.95112442,0.30880793,0,0)"
       cx="46.14325"
       cy="-71.121429"
       rx="2.999923"
       ry="11.599703"
       id="ellipse14"
       style="fill:#000000" /><rect
       x="78"
       y="37.200001"
       width="1.8"
       height="4.5"
       id="rect16"
       style="fill:#000000" /><path
       d="M 72.1,85.7 69,79.2 c 0.8,-2.1 1.3,-4.3 1.3,-6.7 0,-0.6 0,-1.2 -0.1,-1.8 0,0 0,0.1 0,0.1 -1,-13.6 -6.8,-17.9 -12.3,-19.3 -2.4,-0.6 -4.4,-0.8 -6.1,-0.8 -4.3,0 -6.5,1.3 -6.5,1.3 -4.5,1.6 -10.3,5.9 -10.7,17.6 -0.2,0.9 -0.2,1.9 -0.2,2.9 0,2.3 0.4,4.4 1.2,6.4 l -3.3,6.8 -1.9,2.1 c -0.4,0.6 -0.1,1.4 0.5,1.7 L 32,90 c 0.6,0.3 1.4,0 1.6,-0.7 l 0.5,-2.8 2.6,-5.3 c 3.1,5.5 8.9,9.2 15.6,9.2 6.6,0 12.4,-3.6 15.5,-8.9 l 2.5,5.1 0.5,2.8 c 0.2,0.7 1,1 1.6,0.7 l 1.1,-0.5 c 0.6,-0.3 0.9,-1.1 0.5,-1.7 l -1.9,-2.2 z m -19.7,2 c -8.4,0 -15.2,-6.8 -15.2,-15.2 0,-8.4 6.8,-15.2 15.2,-15.2 8.4,0 15.2,6.8 15.2,15.2 0,8.4 -6.8,15.2 -15.2,15.2 z"
       id="path18"
       inkscape:connector-curvature="0"
       style="fill:#000000" /><ellipse
       transform="matrix(-0.30149028,0.95346925,-0.95346925,-0.30149028,0,0)"
       cx="20.958927"
       cy="-25.770012"
       rx="3.2001033"
       ry="12.200394"
       id="ellipse20"
       style="fill:#000000" /><path
       d="m 24.6,79.7 -4.1,-9 c -0.3,-0.6 -0.7,-1 -1.3,-1.3 l -2.3,-0.9 0,-36.3 -1.9,-0.5 0,36.7 -2.6,1 c -0.5,0.2 -1,0.6 -1.2,1.1 L 7,79.7 5.1,81.8 C 4.7,82.4 5,83.2 5.6,83.5 L 6.7,84 c 0.6,0.3 1.4,0 1.6,-0.7 l 0.5,-2.8 2.1,-4.3 4.2,2.2 c 0.5,0.2 1,0.2 1.5,0 l 4,-2.3 2.2,4.5 0.5,2.8 c 0.2,0.7 1,1 1.6,0.7 L 26,83.6 c 0.6,-0.3 0.9,-1.1 0.5,-1.7 L 24.6,79.7 Z M 15,76.4 11.7,74.5 12.5,72.8 c 0.2,-0.4 0.5,-0.7 0.9,-0.9 l 1.6,-0.8 0,5.3 z m 1.8,0 0,-5.2 1.3,0.7 c 0.4,0.2 0.8,0.6 1,1.1 l 0.7,1.5 -3,1.9 z"
       id="path22"
       inkscape:connector-curvature="0"
       style="fill:#000000" /><path
       d="m 94.8,81.4 -1.8,-2.1 -4.5,-9.9 -3.3,-1.3 0,-42.1 -1.8,0.5 0,41.6 -3.3,1.3 -4.5,9.9 -1.9,2.1 c -0.4,0.6 -0.1,1.4 0.5,1.7 l 1.1,0.5 c 0.2,0.1 0.3,0.1 0.5,0.1 0.5,0 0.9,-0.3 1.1,-0.8 l 0.5,-2.8 2.1,-4.3 5,2.6 4.8,-2.8 2.2,4.5 0.5,2.8 c 0.2,0.5 0.6,0.8 1.1,0.8 0.2,0 0.3,0 0.5,-0.1 l 1.1,-0.5 C 95,82.8 95.2,82 94.8,81.4 Z M 83.2,76 80,74.2 81.1,72 l 2.1,-1.1 0,5.1 z m 1.9,0.1 0,-5.3 2.1,1.1 1.1,2.2 -3.2,2 z"
       id="path24"
       inkscape:connector-curvature="0"
       style="fill:#000000" /><path
       d="m 20.6,44.4 c -0.1,1.9 4.7,3.7 10.7,4.2 0.6,0 1.2,0.1 1.8,0.1 -1.6,-1.2 -1.7,-2.5 -1.6,-3.2 l 0.4,-3.6 c 0,0 -0.1,0 -0.1,0 -6,-0.5 -11,0.6 -11.2,2.5 z"
       id="path32"
       inkscape:connector-curvature="0"
       style="fill:#000000" /><path
       d="m 33.1,68.4 c 0.6,-9.7 4.8,-14.4 9,-16.8 l 0,-0.3 c -0.6,0 -1.2,-0.1 -1.8,-0.1 -1.5,-0.2 -3,-0.5 -4.2,-1 -1.6,0.2 -3.3,0.3 -5,0.2 -5.3,-0.4 -10.8,-3 -10.8,-3 L 20,63.7 c 0,0 2.4,4.1 9.8,4.7 1.2,0 2.3,0 3.3,0 z"
       id="path34"
       inkscape:connector-curvature="0"
       style="fill:#000000" /><path
       d="m 78.9,36.1 c 1.1,0 2.1,-0.1 3,-0.2 l 0,-4 c -1,-0.1 -2,-0.1 -3.1,-0.1 -4.6,0.1 -8.3,1.1 -8.3,2.3 0,1.2 3.8,2.1 8.4,2 z"
       id="path36"
       inkscape:connector-curvature="0"
       style="fill:#000000" /><path
       d="m 86.4,34.7 c 0.5,-0.3 0.7,-0.6 0.7,-0.9 0,-0.3 -0.3,-0.6 -0.7,-0.9 l 0,1.8 z"
       id="path38"
       inkscape:connector-curvature="0"
       style="fill:#000000" /><path
       d="m 81.9,43.2 c -0.2,0 -0.5,0 -0.7,0 -1.7,0 -3.9,0.2 -6.3,0.7 -1.2,0.2 -2.3,0.5 -3.4,0.8 0.1,0.2 0.2,0.5 0.2,0.7 0.1,0.8 -0.1,2.4 -2.4,3.8 0.1,0 0.2,0 0.2,0 1.7,0 3.9,-0.2 6.3,-0.7 2.4,-0.5 4.5,-1.1 6.1,-1.7 l 0,-3.6 z"
       id="path40"
       inkscape:connector-curvature="0"
       style="fill:#000000" /><path
       d="m 81.9,48.4 c -1.6,0.7 -3.6,1.4 -5.7,1.8 -1.8,0.4 -3.6,0.5 -5.2,0.5 -2.8,0 -4.9,-0.4 -4.9,-0.4 l 0.8,4.3 c 0.1,0.7 0.7,1.2 1.4,1.3 0.9,0.1 2.2,0.3 3.8,0.3 1.5,0 3.2,-0.1 5.1,-0.5 1.8,-0.4 3.3,-0.9 4.6,-1.4 l 0,-5.9 z"
       id="path42"
       inkscape:connector-curvature="0"
       style="fill:#000000" /><path
       d="m 78.7,68.9 c 0.1,-0.3 0.4,-0.6 0.7,-0.7 l 0.4,-0.2 0,-11.4 -1.8,0.5 0,13.2 0.7,-1.4 z"
       id="path44"
       inkscape:connector-curvature="0"
       style="fill:#000000" /></g></svg>