<?xml version="1.0" encoding="UTF-8" standalone="no"?>
<svg
   xmlns:dc="http://purl.org/dc/elements/1.1/"
   xmlns:cc="http://creativecommons.org/ns#"
   xmlns:rdf="http://www.w3.org/1999/02/22-rdf-syntax-ns#"
   xmlns:svg="http://www.w3.org/2000/svg"
   xmlns="http://www.w3.org/2000/svg"
   xmlns:sodipodi="http://sodipodi.sourceforge.net/DTD/sodipodi-0.dtd"
   xmlns:inkscape="http://www.inkscape.org/namespaces/inkscape"
   version="1.1"
   x="0px"
   y="0px"
   viewBox="0 0 50 34.377018"
   enable-background="new 0 0 100 100"
   xml:space="preserve"
   id="svg2"
   inkscape:version="0.91 r13725"
   sodipodi:docname="speaker_iconoci_rotated.svg"
   width="50"
   height="34.377018"><metadata
     id="metadata118"><rdf:RDF><cc:Work
         rdf:about=""><dc:format>image/svg+xml</dc:format><dc:type
           rdf:resource="http://purl.org/dc/dcmitype/StillImage" /><dc:title></dc:title></cc:Work></rdf:RDF></metadata><defs
     id="defs116" /><sodipodi:namedview
     pagecolor="#ffffff"
     bordercolor="#666666"
     borderopacity="1"
     objecttolerance="10"
     gridtolerance="10"
     guidetolerance="10"
     inkscape:pageopacity="0"
     inkscape:pageshadow="2"
     inkscape:window-width="1920"
     inkscape:window-height="1017"
     id="namedview114"
     showgrid="false"
     fit-margin-top="0"
     fit-margin-left="0"
     fit-margin-right="0"
     fit-margin-bottom="0"
     inkscape:zoom="3.776"
     inkscape:cx="-54.185509"
     inkscape:cy="26.650566"
     inkscape:window-x="1912"
     inkscape:window-y="-8"
     inkscape:window-maximized="1"
     inkscape:current-layer="svg2" /><path
     d="m 40.816028,23.609375 c -1.371472,1.855847 -3.319556,3.259576 -5.577621,3.947076 -0.233367,0.07359 -0.366935,0.318549 -0.293347,0.551412 0.07107,0.233367 0.316029,0.366935 0.549396,0.293347 2.444556,-0.745464 4.551411,-2.261593 6.03377,-4.266634 0.05746,-0.07913 0.08619,-0.171875 0.08619,-0.263104 0,-0.136089 -0.06099,-0.268146 -0.177923,-0.354335 -0.196069,-0.145665 -0.473286,-0.104839 -0.616936,0.08871 l -0.0035,0.0035 z"
     id="path4"
     inkscape:connector-curvature="0"
     style="fill:#000000" /><path
     d="m 27.930444,17.189012 c 0.0035,2.265625 1.836693,4.095766 4.100806,4.099798 2.263105,-0.0035 4.097278,-1.834173 4.100806,-4.099798 -0.0035,-2.265625 -1.837701,-4.097278 -4.100806,-4.102319 -2.264113,0.005 -4.097278,1.836694 -4.100806,4.102319 z"
     id="path106"
     inkscape:connector-curvature="0"
     style="fill:#000000" /><path
     d="M 0,2.3457662 0,32.035786 c 0,1.289819 1.0478831,2.34123 2.3422379,2.34123 l 45.3155241,0 C 48.950605,34.377016 50,33.325605 50,32.035786 L 50,2.3457662 C 50,1.0519152 48.950605,1.8103408e-7 47.657762,1.8103408e-7 l -45.3150201,0 C 1.0483871,-5.0381897e-4 0,1.0514112 0,2.3457662 Z M 4.2943548,17.190524 c 0,-2.591734 2.0972783,-4.689012 4.6885081,-4.689012 2.5902221,0 4.6859881,2.097278 4.6859881,4.689012 0,2.587198 -2.09627,4.686996 -4.6859881,4.686996 -2.5912298,0 -4.6885081,-2.099798 -4.6885081,-4.686996 z m 41.2147182,0 c 0,7.443044 -6.034779,13.477319 -13.477823,13.477319 -7.444556,0 -13.47631,-6.034779 -13.477823,-13.477319 0.001,-7.4470768 6.033267,-13.4742938 13.477823,-13.4793338 7.443548,0.0045 13.477823,6.031753 13.477823,13.4793338 z"
     id="path108"
     inkscape:connector-curvature="0"
     style="fill:#000000" /></svg>