<?xml version="1.0" encoding="UTF-8" standalone="no"?>
<svg
   xmlns:dc="http://purl.org/dc/elements/1.1/"
   xmlns:cc="http://creativecommons.org/ns#"
   xmlns:rdf="http://www.w3.org/1999/02/22-rdf-syntax-ns#"
   xmlns:svg="http://www.w3.org/2000/svg"
   xmlns="http://www.w3.org/2000/svg"
   xmlns:sodipodi="http://sodipodi.sourceforge.net/DTD/sodipodi-0.dtd"
   xmlns:inkscape="http://www.inkscape.org/namespaces/inkscape"
   version="1.1"
   x="0px"
   y="0px"
   viewBox="0 0 99.199996 68.204002"
   enable-background="new 0 0 100 100"
   xml:space="preserve"
   id="svg2"
   inkscape:version="0.91 r13725"
   sodipodi:docname="speaker_iconoci_rotated.svg"
   width="99.199997"
   height="68.204002"><metadata
     id="metadata118"><rdf:RDF><cc:Work
         rdf:about=""><dc:format>image/svg+xml</dc:format><dc:type
           rdf:resource="http://purl.org/dc/dcmitype/StillImage" /><dc:title></dc:title></cc:Work></rdf:RDF></metadata><defs
     id="defs116" /><sodipodi:namedview
     pagecolor="#ffffff"
     bordercolor="#666666"
     borderopacity="1"
     objecttolerance="10"
     gridtolerance="10"
     guidetolerance="10"
     inkscape:pageopacity="0"
     inkscape:pageshadow="2"
     inkscape:window-width="1920"
     inkscape:window-height="1017"
     id="namedview114"
     showgrid="false"
     fit-margin-top="0"
     fit-margin-left="0"
     fit-margin-right="0"
     fit-margin-bottom="0"
     inkscape:zoom="3.776"
     inkscape:cx="97.760244"
     inkscape:cy="47.504308"
     inkscape:window-x="-8"
     inkscape:window-y="-8"
     inkscape:window-maximized="1"
     inkscape:current-layer="svg2" /><path
     d="m 76.342383,46.841 c -4.061138,3.682 -8.939795,6.467 -13.916251,7.831 -0.516139,0.146 -0.958029,0.632 -0.980183,1.094 -0.02752,0.463 0.36203,0.728 0.878169,0.582 5.388312,-1.479 10.663135,-4.487 15.052008,-8.465 0.171148,-0.157 0.295118,-0.341 0.360996,-0.522 0.09827,-0.27 0.07263,-0.532 -0.09713,-0.703 -0.283813,-0.289 -0.863294,-0.208 -1.288059,0.176 l -0.0095,0.007 z"
     id="path4"
     inkscape:connector-curvature="0"
     style="fill:#000000" /><path
     d="m 55.413636,34.103 c -1.629046,4.495 0.686378,8.126 5.175466,8.134 4.492548,-0.007 9.453488,-3.639 11.096534,-8.134 1.629046,-4.495 -0.687286,-8.129 -5.173646,-8.139 -4.49564,0.01 -9.455308,3.644 -11.098354,8.139 z"
     id="path106"
     inkscape:connector-curvature="0"
     style="fill:#000000" /><path
     d="M 10.718196,4.6540004 -10.721471,63.559 c -0.9314,2.559 0.38836,4.641144 2.9563582,4.645 l 95.3873448,0.06219 0.007,-0.02332 L 109.9182,4.6540004 C 110.82182,2.0760378 109.53011,3.5921748e-7 106.96511,3.5921748e-7 l -89.904997,0 C 14.492477,-9.9964078e-4 11.652871,2.0860004 10.718196,4.6540004 Z M 8.5185441,34.106 c 1.8715349,-5.142 7.5470149,-9.303 12.6880149,-9.303 5.139,0 7.78252,4.161 5.910985,9.303 -1.868259,5.133 -7.543559,9.299 -12.681559,9.299 -5.1410001,0 -7.7857002,-4.166 -5.9174409,-9.299 z m 81.7699999,0 c -5.374748,14.767 -21.7052,26.739 -36.4722,26.739 -14.77,0 -22.379184,-11.973 -17.0078,-26.739 C 42.188204,19.331 58.50856,7.3730004 73.2822,7.3630004 88.046924,7.3720004 95.666568,19.33 90.288544,34.106 Z"
     id="path108"
     inkscape:connector-curvature="0"
     style="fill:#000000"
     sodipodi:nodetypes="sssccsscssssssssccs" /><path
     style="fill:#333333;fill-rule:evenodd;stroke:#000000;stroke-width:1px;stroke-linecap:butt;stroke-linejoin:miter;stroke-opacity:1"
     d="M 87.658898,67.773652 109.67654,2.6942524 111.03019,67.674341 Z"
     id="path4297"
     inkscape:connector-curvature="0"
     sodipodi:nodetypes="cccc" /></svg>