<?xml version="1.0" encoding="UTF-8" standalone="no"?>
<svg
   xmlns:dc="http://purl.org/dc/elements/1.1/"
   xmlns:cc="http://creativecommons.org/ns#"
   xmlns:rdf="http://www.w3.org/1999/02/22-rdf-syntax-ns#"
   xmlns:svg="http://www.w3.org/2000/svg"
   xmlns="http://www.w3.org/2000/svg"
   xmlns:sodipodi="http://sodipodi.sourceforge.net/DTD/sodipodi-0.dtd"
   xmlns:inkscape="http://www.inkscape.org/namespaces/inkscape"
   version="1.1"
   x="0px"
   y="0px"
   viewBox="0 0 34.377018 50"
   enable-background="new 0 0 100 100"
   xml:space="preserve"
   id="svg2"
   inkscape:version="0.91 r13725"
   sodipodi:docname="speaker_iconoci.svg"
   width="34.377018"
   height="50"><metadata
     id="metadata118"><rdf:RDF><cc:Work
         rdf:about=""><dc:format>image/svg+xml</dc:format><dc:type
           rdf:resource="http://purl.org/dc/dcmitype/StillImage" /><dc:title></dc:title></cc:Work></rdf:RDF></metadata><defs
     id="defs116" /><sodipodi:namedview
     pagecolor="#ffffff"
     bordercolor="#666666"
     borderopacity="1"
     objecttolerance="10"
     gridtolerance="10"
     guidetolerance="10"
     inkscape:pageopacity="0"
     inkscape:pageshadow="2"
     inkscape:window-width="1920"
     inkscape:window-height="1017"
     id="namedview114"
     showgrid="false"
     fit-margin-top="0"
     fit-margin-left="0"
     fit-margin-right="0"
     fit-margin-bottom="0"
     inkscape:zoom="3.776"
     inkscape:cx="-121.68855"
     inkscape:cy="42.148568"
     inkscape:window-x="1912"
     inkscape:window-y="-8"
     inkscape:window-maximized="1"
     inkscape:current-layer="svg2" /><g
     id="g4135"
     transform="scale(0.50403226,0.50403226)"><path
       style="fill:#000000"
       inkscape:connector-curvature="0"
       id="path4"
       d="M 21.363,80.979 C 17.681,78.258 14.896,74.393 13.532,69.913 13.386,69.45 12.9,69.185 12.438,69.331 c -0.463,0.141 -0.728,0.627 -0.582,1.09 1.479,4.85 4.487,9.03 8.465,11.971 0.157,0.114 0.341,0.171 0.522,0.171 0.27,0 0.532,-0.121 0.703,-0.353 0.289,-0.389 0.208,-0.939 -0.176,-1.224 l -0.007,-0.007 z" /><path
       style="fill:#000000"
       inkscape:connector-curvature="0"
       id="path106"
       d="m 34.101,55.414 c -4.495,0.007 -8.126,3.644 -8.134,8.136 0.007,4.49 3.639,8.129 8.134,8.136 4.495,-0.007 8.129,-3.646 8.139,-8.136 -0.01,-4.492 -3.644,-8.129 -8.139,-8.136 z" /><path
       style="fill:#000000"
       inkscape:connector-curvature="0"
       id="path108"
       d="M 63.55,0 4.645,0 C 2.086,0 0,2.079 0,4.647 L 0,94.553 C 0,97.118 2.086,99.2 4.645,99.2 l 58.905,0 c 2.567,0 4.654,-2.082 4.654,-4.647 l 0,-89.905 C 68.205,2.08 66.118,0 63.55,0 Z M 34.098,8.52 c 5.142,0 9.303,4.161 9.303,9.302 0,5.139 -4.161,9.297 -9.303,9.297 -5.133,0 -9.299,-4.159 -9.299,-9.297 0,-5.141 4.166,-9.302 9.299,-9.302 z m 0,81.77 C 19.331,90.29 7.359,78.317 7.359,63.55 7.359,48.78 19.332,36.813 34.098,36.81 48.873,36.812 60.831,48.78 60.841,63.55 60.832,78.318 48.874,90.29 34.098,90.29 Z" /></g></svg>