<svg xmlns="http://www.w3.org/2000/svg" xmlns:xlink="http://www.w3.org/1999/xlink" version="1.1" x="0px" y="0px" viewBox="0 0 100 125" enable-background="new 0 0 100 100" xml:space="preserve"><g><path d="M66.332,17.351c0-0.988,0.8-1.788,1.788-1.788s1.788,0.8,1.788,1.788s-0.8,1.788-1.788,1.788S66.332,18.338,66.332,17.351z    M45.818,24.872c0-2.31,1.873-4.182,4.182-4.182s4.182,1.873,4.182,4.182c0,2.309-1.873,4.181-4.182,4.181   S45.818,27.181,45.818,24.872z M51.219,22.885c0,0.423,0.344,0.768,0.768,0.768c0.423,0,0.768-0.344,0.768-0.768   c0-0.424-0.344-0.768-0.768-0.768C51.563,22.117,51.219,22.461,51.219,22.885z M40.637,24.872c0-5.164,4.2-9.364,9.363-9.364   s9.363,4.201,9.363,9.364c0,5.163-4.2,9.363-9.363,9.363S40.637,30.035,40.637,24.872z M43.637,24.872   c0,3.509,2.854,6.363,6.363,6.363s6.363-2.854,6.363-6.363c0-3.509-2.854-6.364-6.363-6.364S43.637,21.363,43.637,24.872z    M30.248,57.812c0-10.892,8.861-19.752,19.752-19.752s19.752,8.861,19.752,19.752S60.892,77.564,50,77.564   S30.248,68.703,30.248,57.812z M36.248,57.812c0,7.583,6.169,13.752,13.752,13.752s13.752-6.169,13.752-13.752   S57.583,44.059,50,44.059S36.248,50.229,36.248,57.812z M79.545,18.252v63.495C79.545,87.952,74.497,93,68.292,93H31.708   c-6.205,0-11.252-5.048-11.252-11.252V18.252C20.455,12.048,25.503,7,31.708,7h36.585C74.497,7,79.545,12.048,79.545,18.252z    M73.545,18.252c0-2.896-2.356-5.252-5.252-5.252H31.708c-2.896,0-5.252,2.356-5.252,5.252v63.495c0,2.896,2.356,5.252,5.252,5.252   h36.585c2.896,0,5.252-2.356,5.252-5.252V18.252z M68.462,81.15H31.538c-0.829,0-1.5,0.671-1.5,1.5s0.671,1.5,1.5,1.5h36.924   c0.829,0,1.5-0.671,1.5-1.5S69.291,81.15,68.462,81.15z M41.972,57.812c0-4.434,3.594-8.028,8.028-8.028s8.028,3.595,8.028,8.028   S54.434,65.84,50,65.84S41.972,62.245,41.972,57.812z M51.686,54.125c0,1.104,0.895,2,2,2c1.105,0,2-0.895,2-2s-0.895-2-2-2   C52.581,52.125,51.686,53.021,51.686,54.125z"/></g><text x="0" y="115" fill="#000000" font-size="5px" font-weight="bold" font-family="'Helvetica Neue', Helvetica, Arial-Unicode, Arial, Sans-serif">Created by Richard Nixon</text><text x="0" y="120" fill="#000000" font-size="5px" font-weight="bold" font-family="'Helvetica Neue', Helvetica, Arial-Unicode, Arial, Sans-serif">from the Noun Project</text></svg>